# xmcd
#
# Track frame offsets: 
#        150
#        14924
#        36820
#        53644
#        67798
#        90215
#        106725
#        123154
#        133906
#        149895
#        163617
#        176626
#        192352
#        206551
#        220264
#        235030
#        241998
#        256007
#
# Disc length: 3575 seconds
#
# Revision: 0
# Processed by: cddbd v1.5.2PL0 Copyright (c) Steve Scherf et al.
# Submitted via: ExactAudioCopy v0.99pb3
#
DISCID=fa0df512
DTITLE=The Flying Burrito Brothers - The Flying Burrito Brothers
DYEAR=1971
DGENRE=Alt. Rock
TTITLE0=White Line Fever
TTITLE1=Colorado
TTITLE2=Hand to Mouth
TTITLE3=Tried So Hard
TTITLE4=Just Can't Be
TTITLE5=To Ramona
TTITLE6=Four Days of Rain
TTITLE7=Can't You Hear Me Calling
TTITLE8=All Alone
TTITLE9=Why Are You Crying
TTITLE10=Tried So Hard (Single version)
TTITLE11=Here Tonight
TTITLE12=Payday
TTITLE13=In My Own Small Way
TTITLE14=Feel Good Music
TTITLE15=Beat The Heat
TTITLE16=Did You See
TTITLE17=Pick Me Up On Your Way Down
EXTD=
EXTT0=
EXTT1=
EXTT2=
EXTT3=
EXTT4=
EXTT5=
EXTT6=
EXTT7=
EXTT8=
EXTT9=
EXTT10=
EXTT11=
EXTT12=
EXTT13=
EXTT14=
EXTT15=
EXTT16=
EXTT17=
PLAYORDER=
